<svg width="670" height="621" viewBox="0 0 670 621" fill="none" xmlns="http://www.w3.org/2000/svg">
<g filter="url(#filter0_d)">
<path fill-rule="evenodd" clip-rule="evenodd" d="M332.209 611.825H301.209C299.209 611.992 293.909 611.525 288.709 608.325C283.509 605.125 251.542 569.992 236.209 552.825H229.209C222.042 546.659 209.609 529.125 217.209 508.325L221.709 503.325L170.709 475.325C164.042 471.825 148.909 462.125 141.709 451.325L7.20861 250.825C5.54194 247.159 3.20861 238.525 7.20861 233.325C23.8753 195.825 58.6086 120.525 64.2086 119.325C65.542 115.325 71.6086 107.925 85.2086 110.325L133.709 7.82546C136.042 3.82546 141.109 -1.77454 142.709 7.82546L150.709 98.8255L85.2086 227.825C82.2086 229.825 78.0086 235.525 85.2086 242.325L181.709 385.325C181.709 385.325 197.709 380.825 203.709 385.325C207.709 380.825 209.709 369.825 209.709 369.825L212.709 358.825L189.709 119.325C190.042 114.825 192.309 105.125 198.709 102.325L257.709 76.3255C260.542 77.8255 267.509 79.5255 272.709 74.3255C276.042 72.9921 285.209 70.4255 295.209 70.8255L330.209 38.3255L367.209 68.3255C374.209 68.9921 389.209 71.1255 393.209 74.3255C397.209 77.5255 400.542 75.6588 401.709 74.3255L468.209 99.8255C471.542 101.492 478.009 107.425 477.209 117.825L457.709 350.825C458.875 358.159 462.109 374.525 465.709 381.325C469.309 388.125 470.209 385.825 470.209 383.825C471.042 382.659 474.009 381.025 479.209 383.825C482.209 384.825 488.809 385.725 491.209 381.325L583.209 239.325C586.542 237.325 591.209 231.025 583.209 221.825L516.209 99.8255C514.542 97.8255 511.709 93.0255 513.709 89.8255C515.709 86.6255 514.542 86.4921 513.709 86.8255L519.209 4.82547C519.875 2.82547 522.309 -0.574533 526.709 1.82547L577.209 101.825C578.542 103.825 583.009 107.825 590.209 107.825C597.409 107.825 598.875 111.825 598.709 113.825L659.709 221.825C663.709 225.659 669.309 235.825 659.709 245.825C626.709 299.159 552.809 416.525 521.209 459.325C516.875 463.492 504.409 473.925 489.209 482.325L447.209 501.825C454.042 514.159 460.909 542.225 433.709 555.825L382.709 605.825C380.709 607.825 373.509 611.825 360.709 611.825H332.209ZM418.209 430.325C404.709 443.825 349.709 455.325 349.709 455.325C349.709 455.325 381.109 473.225 398.709 464.825C420.709 454.325 422.209 426.325 418.209 430.325ZM318.709 455.325C295.509 453.725 263.375 437.992 250.209 430.325C251.809 451.525 262.209 460.492 267.209 462.325C284.009 471.125 308.542 461.325 318.709 455.325ZM254.709 531.325L252.209 485.825L281.209 499.825L318.709 483.325C331.109 475.325 344.542 479.992 349.709 483.325L388.209 499.825L416.209 485.825L413.209 531.325C409.209 540.525 367.709 574.325 366.209 570.325L356.209 558.825H312.209L300.709 573.325L254.709 531.325Z" fill="#AA1A71"/>
<path d="M332.209 611.825H301.209C299.209 611.992 293.909 611.525 288.709 608.325C283.509 605.125 251.542 569.992 236.209 552.825H229.209C222.042 546.659 209.609 529.125 217.209 508.325L221.709 503.325L170.709 475.325C164.042 471.825 148.909 462.125 141.709 451.325L7.20861 250.825C5.54194 247.159 3.20861 238.525 7.20861 233.325C23.8753 195.825 58.6086 120.525 64.2086 119.325C65.542 115.325 71.6086 107.925 85.2086 110.325L133.709 7.82546C136.042 3.82546 141.109 -1.77454 142.709 7.82546L150.709 98.8255L85.2086 227.825C82.2086 229.825 78.0086 235.525 85.2086 242.325L181.709 385.325C181.709 385.325 197.709 380.825 203.709 385.325C207.709 380.825 209.709 369.825 209.709 369.825L212.709 358.825L189.709 119.325C190.042 114.825 192.309 105.125 198.709 102.325L257.709 76.3255C260.542 77.8255 267.509 79.5255 272.709 74.3255C276.042 72.9921 285.209 70.4255 295.209 70.8255L330.209 38.3255L367.209 68.3255C374.209 68.9921 389.209 71.1255 393.209 74.3255C397.209 77.5255 400.542 75.6588 401.709 74.3255L468.209 99.8255C471.542 101.492 478.009 107.425 477.209 117.825L457.709 350.825C458.875 358.159 462.109 374.525 465.709 381.325C469.309 388.125 470.209 385.825 470.209 383.825C471.042 382.659 474.009 381.025 479.209 383.825C482.209 384.825 488.809 385.725 491.209 381.325L583.209 239.325C586.542 237.325 591.209 231.025 583.209 221.825L516.209 99.8255C514.542 97.8255 511.709 93.0255 513.709 89.8255C515.709 86.6255 514.542 86.4921 513.709 86.8255L519.209 4.82547C519.875 2.82547 522.309 -0.574533 526.709 1.82547L577.209 101.825C578.542 103.825 583.009 107.825 590.209 107.825C597.409 107.825 598.875 111.825 598.709 113.825L659.709 221.825C663.709 225.659 669.309 235.825 659.709 245.825C626.709 299.159 552.809 416.525 521.209 459.325C516.875 463.492 504.409 473.925 489.209 482.325L447.209 501.825C454.042 514.159 460.909 542.225 433.709 555.825L382.709 605.825C380.709 607.825 373.509 611.825 360.709 611.825M332.209 611.825C336.375 611.825 347.909 611.825 360.709 611.825M332.209 611.825H360.709M349.709 455.325C349.709 455.325 404.709 443.825 418.209 430.325C422.209 426.325 420.709 454.325 398.709 464.825C381.109 473.225 349.709 455.325 349.709 455.325ZM250.209 430.325C263.375 437.992 295.509 453.725 318.709 455.325C308.542 461.325 284.009 471.125 267.209 462.325C262.209 460.492 251.809 451.525 250.209 430.325ZM252.209 485.825L254.709 531.325L300.709 573.325L312.209 558.825H356.209L366.209 570.325C367.709 574.325 409.209 540.525 413.209 531.325L416.209 485.825L388.209 499.825L349.709 483.325C344.542 479.992 331.109 475.325 318.709 483.325L281.209 499.825L252.209 485.825Z" stroke="#AA1A71"/>
</g>
<defs>
<filter id="filter0_d" x="0.500061" y="0.500031" width="669.009" height="619.855" filterUnits="userSpaceOnUse" color-interpolation-filters="sRGB">
<feFlood flood-opacity="0" result="BackgroundImageFix"/>
<feColorMatrix in="SourceAlpha" type="matrix" values="0 0 0 0 0 0 0 0 0 0 0 0 0 0 0 0 0 0 127 0" result="hardAlpha"/>
<feOffset dy="4"/>
<feGaussianBlur stdDeviation="2"/>
<feComposite in2="hardAlpha" operator="out"/>
<feColorMatrix type="matrix" values="0 0 0 0 0 0 0 0 0 0 0 0 0 0 0 0 0 0 0.25 0"/>
<feBlend mode="normal" in2="BackgroundImageFix" result="effect1_dropShadow"/>
<feBlend mode="normal" in="SourceGraphic" in2="effect1_dropShadow" result="shape"/>
</filter>
</defs>
</svg>
